PathFileType	4	(X/Y/Z)	27_1_14_p1_0-285.trc
DataRate	CameraRate	NumFrames	NumMarkers	Units	OrigDataRate	OrigDataStartFrame	OrigNumFrames
59.0	59.0	5	27	m	59.0	178	286
Frame#	Time	RHip			RKnee			RAnkle			RBigToe			RSmallToe			RHeel			LHip			LKnee			LAnkle			LBigToe			LSmallToe			LHeel			Neck			Head			Nose			RShoulder			RElbow			RWrist			RThumb			RIndex			RPinky			LShoulder			LElbow			LWrist			LThumb			LIndex			LPinky			
		X1	Y1	Z1	X2	Y2	Z2	X3	Y3	Z3	X4	Y4	Z4	X5	Y5	Z5	X6	Y6	Z6	X7	Y7	Z7	X8	Y8	Z8	X9	Y9	Z9	X10	Y10	Z10	X11	Y11	Z11	X12	Y12	Z12	X13	Y13	Z13	X14	Y14	Z14	X15	Y15	Z15	X16	Y16	Z16	X17	Y17	Z17	X18	Y18	Z18	X19	Y19	Z19	X20	Y20	Z20	X21	Y21	Z21	X22	Y22	Z22	X23	Y23	Z23	X24	Y24	Z24	X25	Y25	Z25	X26	Y26	Z26	X27	Y27	Z27	
178	3.016949152542373	0.14455111105910426	0.6895102786693148	1.0504148926735095	0.15457615744946762	0.7288394137888979	1.4510928177374787	0.1646866648173616	0.8367113226808801	1.8493278464217437	0.13562757077679108	0.6221003840503724	1.8563141304813806	0.19560291393752485	0.6436888611006172	1.8497136580609355	0.1612501960208634	0.9121355187655745	1.9077604593549686	-0.05839544466617475	0.6523852045480756	1.0497509761710886	-0.03637678185423515	0.7574396485861856	1.4592364868076961	-0.029508900282667144	0.8131744887157525	1.8299755309775039	-0.019602945275897832	0.6349220796557723	1.8428788665716356	-0.07839853956101056	0.6681446037658826	1.8387688885139715	-0.006428521756477797	0.8791909594108555	1.8896743619414644	0.04394896899678682	0.5931156984516429	0.49965895192428106	0.039890724614162924	0.5358766977785477	0.24630491646184866	0.044559501207558874	0.47172402514580974	0.3874801196735061	0.18916899817446092	0.6081327360388369	0.5815209142979952	0.2372734366870643	0.6649313414368427	0.8091752404243189	0.15586606024183366	0.43212218548167053	0.8561203937562629	0.0779193297038805	0.28925101719354507	0.8518820525028368	0.0786354055629744	0.2813201313105015	0.8539813576212831	0.10705667615674867	0.3173444529657877	0.9053897662734102	-0.10207487042533281	0.6536450786120809	0.5843602832769426	-0.16212620118825585	0.6746138375230528	0.8118848719444557	-0.13656803030428724	0.5807062871934399	1.0156193256775066	-0.0718541706431986	0.5370298704397484	1.0947017702996282	-0.07928928019070301	0.5090099222500233	1.1133261020757679	-0.12349869834319328	0.5845160757714584	1.1447456074158417
179	3.0338983050847457	0.14967469010288037	0.6903844521426016	1.046905735643601	0.15535983880172888	0.7281030552289673	1.4456924989505195	0.16469706067370285	0.8367219422287931	1.849222862462287	0.1355795917315497	0.6221383158691249	1.856306694047438	0.1954919677771779	0.6434004793074948	1.8496086514224679	0.161165357890027	0.9120589485202255	1.9077398964144419	-0.05659801255884976	0.6545713611039039	1.051815531238353	-0.03407306381583446	0.7575802351801051	1.4598592037082316	-0.028593970579884734	0.8124423323152382	1.8246296616271478	-0.023770213732994358	0.6213586458006235	1.8358411740810154	-0.08218338969865395	0.6829192824774614	1.8464494278581076	-0.0022950696009547897	0.8805415224952546	1.886073582241176	0.04378127114422091	0.5928516953242878	0.49967038234464994	0.04033726404039607	0.5370237108112623	0.24954767473926445	0.04872438504647877	0.48295697886115985	0.38765245670640724	0.18712684817336628	0.6217527929186079	0.5864221721145806	0.23931657055054983	0.6522592183116733	0.8113261489114889	0.15631222103984768	0.43284356212027175	0.8792045607978224	0.08722515098981687	0.29459014054637067	0.8845114849110318	0.08455683462950077	0.28483726103019213	0.90179574736331	0.11156893193280303	0.3768548099247323	0.9510390654467219	-0.10209196130395877	0.6535088105572826	0.5843994705367543	-0.1662378433280346	0.6608388114169559	0.8099744591885302	-0.132601558909668	0.5796111251988647	1.0186651394445363	-0.06356551387886457	0.5352835661011243	1.089754341767133	-0.079683227751998	0.5088297310045966	1.109834508094986	-0.11525909806259418	0.5684742525708273	1.1398223450755054
180	3.0508474576271185	0.14841063454486303	0.6905192680787287	1.0417778812266163	0.15517291007101722	0.7282180019022283	1.4457160607644963	0.16458082645411667	0.8368603469896038	1.849526482635021	0.13554509728902234	0.6216952438368558	1.8561630158114708	0.19497540773569724	0.6442687740826354	1.8537189382233572	0.16090887968351475	0.9116735900816624	1.9075209597292277	-0.062071055270952684	0.6679748195863672	1.046132694217041	-0.034542709902863455	0.7580173099626933	1.4599692064940994	-0.02862889480896522	0.8126027383563272	1.8249213952182002	-0.019533168913514382	0.6349057711409289	1.8429755538853259	-0.07813504484588293	0.6668536425441739	1.8428609160391556	-0.007879946155185837	0.8760898122385922	1.8892395543771547	0.043546117517902515	0.5927227157939351	0.499636266523522	0.039710123265424384	0.5354982757170111	0.24609922551443783	0.048770094743034086	0.48288493430653223	0.3876649085405359	0.18621714323461372	0.6201192827637622	0.57906898943778	0.23878466997823175	0.6650622189550677	0.8139001372630444	0.15976129459212415	0.47640907818197586	0.9010828019463918	0.08746319201707188	0.2957912160873078	0.9367848626450825	0.08799086031178045	0.2955829076321784	0.9364983053202102	0.12161255021683873	0.3538022651917109	0.9568668163186846	-0.10193790792577248	0.6532583208484013	0.5809075478977787	-0.16636550736856864	0.6602170775100891	0.8100524460819111	-0.1290454029093018	0.5781033912286679	1.0139398404161915	-0.060472388528357256	0.5354574142640532	1.0867022868649323	-0.07613196073298945	0.4966433965695307	1.1029817474061319	-0.11383063230818477	0.5655897707159038	1.135927346509284
181	3.0677966101694913	0.14403424787734345	0.6904719461401858	1.0415306786696463	0.15547210772054681	0.7319601299384674	1.4523576602940897	0.16464347140469798	0.8367026829091907	1.8493776154336237	0.13558232285460753	0.6217266972999449	1.856098859014953	0.19925867595005836	0.6299559491786243	1.84686715287117	0.1609544397754135	0.9116247814936353	1.9075198785599945	-0.06193097227879962	0.6681759397273508	1.0460766462159272	-0.03555251644035481	0.7597481142279257	1.4647896442231403	-0.02816283849424277	0.815511822465636	1.8357591276094218	-0.019570802078636304	0.6346433528891426	1.8430870613281307	-0.07855482816585363	0.6681896919639383	1.8392313545212866	-0.006812902045644784	0.87822538690167	1.8946354031665946	0.0435730874114271	0.5926573351101554	0.4996659129266939	0.03969918115401299	0.5353313436155638	0.24598577927060822	0.048788963117483417	0.48281506278109726	0.38765920212507265	0.18211343695198504	0.6087854423761838	0.5818547585302271	0.23742701750372702	0.640852948975881	0.8260606583708954	0.15907023328932313	0.42536791795332246	0.9079848311752775	0.07357311318939017	0.3718360332747295	0.9712147078120755	0.08063448660200849	0.31063176853811275	0.9595036194440192	0.10186694696554785	0.31019121498048047	0.9841528428664077	-0.10212175386483419	0.6535104700867956	0.5845624565129588	-0.1627320366662038	0.6465774011968722	0.8111535443837783	-0.1170487955544963	0.5500717072058113	1.0106999143143887	-0.0568478608137829	0.5366264250862083	1.086600503454226	-0.07630415764942844	0.49408328726793505	1.108970516245927	-0.09007133269366793	0.49350762231333345	1.124046259988183
182	3.0847457627118646	0.14300753317717238	0.6889856620250709	1.03636134098967	0.15420350478082323	0.7300325470483775	1.4474528393535713	0.1646333394178803	0.8367742030648591	1.8493452541400026	0.1355163521880876	0.621603688635752	1.8561849785958213	0.19778960322162137	0.6282205857854004	1.8414230440983046	0.15647306415466564	0.9111180406846255	1.9070482170916838	-0.05463227235117493	0.6806628210998855	1.043404829008637	-0.036918164845277816	0.7560376570747788	1.4489625352902284	-0.02956687415410105	0.8131702617484531	1.8300577574190968	-0.023743139397116822	0.6210176653635641	1.8361181936845956	-0.07858316186911028	0.6679054956315152	1.839086277628726	-0.009358168084062592	0.8784161551654569	1.891195046851498	0.04355143402730132	0.5927861124361096	0.4996517854251178	0.03938123459543963	0.5353244098648932	0.2424234855082288	0.04875631003331376	0.48289246788834794	0.38768217763591484	0.1813381804409519	0.6074530775759936	0.5781225923516201	0.23714755545587624	0.6390686288563356	0.822703838511299	0.15859105027900147	0.43895017398353675	0.9341675960480692	0.06566333395620243	0.37492774570619725	0.9984218438353416	0.0801997516170905	0.33612828198442785	1.0097439568902593	0.10085121107124442	0.3244478866558784	1.0291455705912034	-0.1020819363879941	0.6535157023889296	0.584640004072483	-0.15881063052327185	0.6593924681364811	0.8131243246820479	-0.11142664587802115	0.5372247525344052	1.012250132182659	-0.05618250903825606	0.524668364524556	1.0899731233175203	-0.0710166090216426	0.49423261624522496	1.1099169819634207	-0.08967169779945912	0.4960884376909882	1.122707322668444
